Coordinates
version=1
nRows=19
nColumns=24
inDegrees=yes

Units are S.I. units (second, meters, Newtons, ...)
Angles are in degrees.

endheader
time	pelvis_tilt	pelvis_list	pelvis_rotation	pelvis_tx	pelvis_ty	pelvis_tz	hip_flexion_r	hip_adduction_r	hip_rotation_r	knee_angle_r	ankle_angle_r	subtalar_angle_r	mtp_angle_r	hip_flexion_l	hip_adduction_l	hip_rotation_l	knee_angle_l	ankle_angle_l	subtalar_angle_l	mtp_angle_l	lumbar_extension	lumbar_bending	lumbar_rotation
      3.66000000	    -21.24070641	     -0.22487020	      7.78946817	     -1.83754871	     -0.03106193	     -0.28556551	     46.11291683	     -0.06439983	      4.56499376	     -5.81906142	     -2.04752102	     -6.18833101	     10.83388072	      0.29408341	      4.02453860	     16.97648207	    -13.00745089	     17.18264212	     15.76881915	    -66.63740074	     12.86542929	     -3.29179680	    -10.56445202
      3.66500000	    -21.31799890	     -0.34931538	      7.89650570	     -1.82903137	     -0.03286829	     -0.28572653	     46.46608079	      0.02765946	      4.59291502	     -6.64948384	     -2.79051009	     -6.73355074	     13.39142536	      0.16788389	      3.88396809	     16.93910842	    -13.66843885	     16.63088639	     16.19885442	    -64.20882839	     13.04577009	     -3.17430318	    -10.69983594
      3.67000000	    -21.33473923	     -0.52237699	      8.04513658	     -1.82048554	     -0.03451442	     -0.28586408	     46.78481427	      0.15727390	      4.55008272	     -7.76183117	     -3.15935794	     -6.77712283	     13.46345323	      0.06334188	      3.67301610	     16.79613424	    -14.45678036	     16.43333308	     16.75462596	    -63.98334490	     13.15770553	     -3.01704088	    -10.92266197
      3.67500000	    -21.38169006	     -0.71508380	      8.09907704	     -1.81168368	     -0.03625710	     -0.28584588	     47.14998434	      0.38947640	      4.57094039	     -8.97886349	     -3.77177942	     -6.97217634	     13.78409585	      0.01477405	      3.41994996	     16.35539247	    -15.29778756	     16.19013529	     17.47503591	    -63.58549338	     13.34330893	     -2.82001627	    -11.05580791
      3.68000000	    -21.36924761	     -0.86921352	      8.19386673	     -1.80292679	     -0.03780729	     -0.28604012	     47.38865832	      0.53406072	      4.47476486	     -9.94322448	     -5.58575975	     -7.98954623	     17.77743145	     -0.13721065	      3.23512466	     16.29889340	    -16.03665160	     14.98399594	     17.87264380	    -59.13340143	     13.44046328	     -2.64191216	    -11.21853695
      3.68500000	    -21.40433672	     -1.06139996	      8.11150352	     -1.79394690	     -0.03942949	     -0.28583413	     47.79896898	      0.88230735	      4.38335820	    -11.37823593	     -6.57381238	     -8.02183728	     17.63048631	     -0.14700754	      2.94591187	     15.60831327	    -16.93838460	     14.51560509	     18.72435279	    -58.69844661	     13.62400986	     -2.40811012	    -11.14329527
      3.69000000	    -21.42358159	     -1.10394352	      8.05739125	     -1.78507063	     -0.04081516	     -0.28610458	     48.17857668	      1.05233159	      4.42283996	    -12.79819097	     -7.96171383	     -8.36874576	     18.48381768	     -0.64308142	      2.89078572	     15.54260463	    -16.11188592	      4.74858286	     17.26940902	    -15.51454905	     13.75056607	     -2.26970532	    -11.14660289
      3.69500000	    -21.37973410	     -1.34674773	      7.97956457	     -1.77604874	     -0.04208783	     -0.28591311	     48.47339647	      1.45321927	      4.33606430	    -14.16877884	     -9.61483972	     -9.01604787	     19.30059438	     -0.68072166	      2.50165125	     14.58301835	    -16.78512387	      2.66395118	     17.87637480	     -8.77373478	     13.84143212	     -1.96625176	    -11.12458555
      3.70000000	    -21.42752749	     -1.57185671	      7.84418455	     -1.76702633	     -0.04335956	     -0.28556076	     48.92575026	      1.90246306	      4.35259374	    -15.77741945	    -10.74504471	     -9.29443259	     17.86317549	     -0.55455314	      2.11382174	     13.46550075	    -17.52084736	      0.45946718	     18.54838806	     -2.17094961	     14.02419839	     -1.68872335	    -11.03103106
      3.70500000	    -21.48843261	     -1.81503024	      7.70020346	     -1.75801668	     -0.04452171	     -0.28521564	     49.37824791	      2.37072008	      4.38065255	    -17.33748961	    -11.93036202	     -9.81992599	     17.10926536	     -0.34835384	      1.68741165	     12.31424533	    -18.31267892	     -1.82977832	     19.25176759	      4.12050675	     14.21667414	     -1.39239796	    -10.92783812
      3.71000000	    -21.53421518	     -2.07745453	      7.52862903	     -1.74896427	     -0.04553061	     -0.28482892	     49.81218084	      2.89682007	      4.44965864	    -18.98412664	    -12.56950337	    -10.16010269	     15.03151055	     -0.10460994	      1.21661101	     11.17095207	    -19.16677953	     -4.15066937	     19.99049452	      9.55994049	     14.39415283	     -1.06608523	    -10.80111004
      3.71500000	    -21.58835668	     -2.35659767	      7.33581727	     -1.73992383	     -0.04646212	     -0.28436602	     50.23112327	      3.47527815	      4.59581959	    -20.62298307	    -12.89165927	    -10.58794424	     12.73320759	      0.22093801	      0.69642065	      9.97210113	    -20.08347970	     -6.61040713	     20.80270199	     14.88944923	     14.57628403	     -0.72532204	    -10.65088296
      3.72000000	    -21.63375414	     -2.63019596	      7.13834592	     -1.73088801	     -0.04728562	     -0.28390044	     50.61448677	      4.06658250	      4.71982669	    -22.26477824	    -12.78338378	    -10.95985037	     10.14414106	      0.57622380	      0.17340723	      8.92085998	    -21.02817047	     -9.18301347	     21.58393820	     19.63918784	     14.74496301	     -0.39364102	    -10.46204723
      3.72500000	    -21.64045649	     -2.91458292	      6.93495002	     -1.72186917	     -0.04797697	     -0.28343151	     50.90099869	      4.69300164	      4.87885459	    -23.84800658	    -12.33659180	    -11.32895082	      7.50895356	      0.94504944	     -0.36879672	      7.97498739	    -22.02827485	    -11.86659237	     22.31667357	     23.71684220	     14.86778800	     -0.04726133	    -10.27091076
      3.73000000	    -21.64523167	     -3.17213311	      6.75407673	     -1.71294710	     -0.04857409	     -0.28292152	     51.11390077	      5.31411656	      5.14562170	    -25.33246484	    -11.72396419	    -11.82843067	      5.16902114	      1.37292188	     -0.87250271	      7.25440410	    -23.10592717	    -14.59736702	     23.04140422	     26.72930458	     14.97109554	      0.25341795	    -10.14470151
      3.73500000	    -21.60882448	     -3.50129297	      6.49152111	     -1.70391811	     -0.04909049	     -0.28252899	     51.22261496	      6.02550276	      5.25840096	    -26.72653813	    -10.78109452	    -12.00257622	      2.90399598	      1.79397362	     -1.43182250	      6.50389859	    -24.23736148	    -17.45103199	     23.45197133	     29.16250834	     15.06140833	      0.68026676	     -9.87815858
      3.74000000	    -21.55834533	     -3.71011712	      6.20600661	     -1.69507415	     -0.04954075	     -0.28203309	     51.23512692	      6.67272754	      5.51239157	    -27.93068792	    -10.15924209	    -12.51016222	      2.57510582	      2.23748814	     -1.83006238	      6.05985017	    -25.49102264	    -20.06472438	     24.04180558	     29.12975778	     15.09526451	      0.97625212	     -9.53804870
      3.74500000	    -21.43881398	     -4.01300282	      6.04277900	     -1.68638025	     -0.04979489	     -0.28164827	     51.12590310	      7.31359305	      5.57041133	    -29.14213407	     -8.78390193	    -12.49031889	     -0.13736987	      2.72869370	     -2.31701788	      5.69132790	    -26.78870203	    -23.04987083	     24.16413706	     30.03125178	     15.04833307	      1.33193112	     -9.37874472
      3.75000000	    -21.32400748	     -4.32206328	      5.84048825	     -1.67772491	     -0.05001379	     -0.28131097	     50.90690970	      7.94816901	      5.61667382	    -30.03588079	     -8.02889237	    -12.86743948	     -0.02974279	      3.28748006	     -2.77720414	      5.37783035	    -28.21619552	    -25.86882207	     24.14670206	     29.37908657	     15.01332726	      1.70915826	     -9.17419311
